<?xml version="1.0" encoding="UTF-8"?>
<svg version="1.1" xmlns="http://www.w3.org/2000/svg" width="512" height="512">
<path d="M0 0 C5.01791684 2.41935276 8.49958655 5.9991731 11 11 C12.12207876 20.43089725 9.79330306 27.3376213 5.75 35.75 C4.95094238 37.47827026 4.95094238 37.47827026 4.13574219 39.24145508 C-1.32342025 50.94891195 -7.10037965 62.50901921 -13 74 C-12.24581787 73.98042236 -11.49163574 73.96084473 -10.71459961 73.94067383 C-9.72468018 73.92544678 -8.73476074 73.91021973 -7.71484375 73.89453125 C-6.24325806 73.86516479 -6.24325806 73.86516479 -4.74194336 73.83520508 C0.28340291 74.13723595 2.84516764 76.84516764 6.25 80.25 C10.94318191 87.62500014 10.31264902 96.1913519 10.25 104.625 C10.24395752 105.93734619 10.23791504 107.24969238 10.23168945 108.60180664 C9.74246315 169.23997549 -0.86402972 235.83985008 -39 285 C-39.65355469 285.87527344 -40.30710937 286.75054687 -40.98046875 287.65234375 C-49.248124 298.44291236 -59.20451366 307.7791694 -70 316 C-70.91394531 316.70382812 -71.82789063 317.40765625 -72.76953125 318.1328125 C-88.56236589 329.68248711 -106.13314486 337.99195978 -125 343 C-126.0828125 343.31324219 -127.165625 343.62648438 -128.28125 343.94921875 C-173.66294813 356.4535845 -222.99912121 344.68792358 -263 322 C-276.06465385 314.43372194 -287.55612116 304.93382949 -298.41796875 294.51464844 C-299.45417079 293.52258093 -300.49567267 292.53601274 -301.54296875 291.55566406 C-324.34184278 270.20736107 -324.34184278 270.20736107 -325.23828125 260.390625 C-325.48734758 249.85118657 -325.48734758 249.85118657 -321 245 C-314.15188083 238.33696513 -305.21941097 238.51072105 -296.1875 237.6875 C-282.25798743 236.30001845 -268.67134486 233.98093571 -255 231 C-254.12472656 230.81211914 -253.24945313 230.62423828 -252.34765625 230.43066406 C-223.07405709 224.0256371 -194.57212196 212.6303072 -169 197 C-168.32453125 196.58814453 -167.6490625 196.17628906 -166.953125 195.75195312 C-155.7648195 188.86285761 -145.24786222 181.21556431 -135 173 C-134.11779785 172.29568848 -134.11779785 172.29568848 -133.21777344 171.57714844 C-118.11827207 159.40181564 -103.7482773 145.44719824 -92 130 C-90.93069045 128.65571532 -89.85884136 127.31344874 -88.78515625 125.97265625 C-80.59141963 115.68337233 -73.06401676 105.09294218 -66 94 C-65.3184082 92.93410645 -65.3184082 92.93410645 -64.62304688 91.84667969 C-50.05444839 68.92471934 -37.190042 44.53727511 -26.65234375 19.50390625 C-26.30341064 18.68067871 -25.95447754 17.85745117 -25.5949707 17.00927734 C-24.97756952 15.53143056 -24.37652877 14.04656301 -23.79760742 12.55322266 C-19.26767576 1.63451138 -11.18698633 -1.05427096 0 0 Z M-26 96 C-27.28587994 98.08799437 -28.52359158 100.18977789 -29.75 102.3125 C-41.47353764 122.15599956 -55.06411319 141.98545605 -70.91015625 158.76953125 C-72.66673545 160.64431018 -74.33189599 162.55552976 -76 164.5078125 C-80.54789497 169.72399923 -85.44204065 174.59201671 -90.3425293 179.47290039 C-91.93458966 181.05959946 -93.5212299 182.65157742 -95.10742188 184.24414062 C-124.08913362 213.2524533 -159.11044952 234.65425035 -197 250 C-197.80469727 250.32838867 -198.60939453 250.65677734 -199.43847656 250.99511719 C-222.72304623 260.37757326 -248.10883973 266.76380489 -273 270 C-271.35623271 271.69513502 -269.69414081 273.35580929 -268 275 C-267.46503906 275.51949219 -266.93007813 276.03898438 -266.37890625 276.57421875 C-235.83223054 304.75599054 -194.33417714 314.58958223 -154 313 C-123.36578857 310.68016032 -92.5222743 293.82179944 -72.47265625 271.0078125 C-48.96615042 242.41380067 -36.22676041 207.17995348 -30 171 C-29.84837402 170.14341797 -29.69674805 169.28683594 -29.54052734 168.40429688 C-25.40992503 144.53859463 -24.55572887 120.17518446 -25 96 C-25.33 96 -25.66 96 -26 96 Z " fill="#0B0B0B" transform="translate(418,55)"/>
</svg>
